<svg xmlns="http://www.w3.org/2000/svg" version="1.1" xmlns:xlink="http://www.w3.org/1999/xlink" xmlns:svgjs="http://svgjs.dev/svgjs" width="1000" height="477" viewBox="0 0 1000 477"><g transform="matrix(1,0,0,1,-0.6060606060606233,-0.18526926256757292)"><svg viewBox="0 0 396 189" data-background-color="#0f2b46" preserveAspectRatio="xMidYMid meet" height="477" width="1000" xmlns="http://www.w3.org/2000/svg" xmlns:xlink="http://www.w3.org/1999/xlink"><g id="tight-bounds" transform="matrix(1,0,0,1,0.2400000000000091,0.07340857573431947)"><svg viewBox="0 0 395.52 188.85317946701778" height="188.85317946701778" width="395.52"><g><svg viewBox="0 0 395.52 188.85317946701778" height="188.85317946701778" width="395.52"><g transform="matrix(1,0,0,1,0,116.71884132442078)"><svg viewBox="0 0 395.52 72.134338142597" height="72.134338142597" width="395.52"><g><svg viewBox="0 0 395.52 72.134338142597" height="72.134338142597" width="395.52"><g><svg viewBox="0 0 395.52 72.134338142597" height="72.134338142597" width="395.52"><g transform="matrix(1,0,0,1,0,0)"><svg width="395.52" viewBox="4.949999809265137 -31.950000762939453 178.4600067138672 32.54999923706055" height="72.134338142597" data-palette-color="#ffffff"><path d="M8.9 0L4.95 0 4.95-31.4 15.05-31.4Q20.23-31.4 22.96-28.79 25.7-26.18 25.7-21.7L25.7-21.7Q25.7-17.28 22.96-14.69 20.23-12.1 15.05-12.1L15.05-12.1 8.9-12.1 8.9 0ZM8.9-28.05L8.9-15.5 15.05-15.5Q18.32-15.5 20.01-17.18 21.7-18.85 21.7-21.7L21.7-21.7Q21.7-24.6 20.01-26.33 18.32-28.05 15.05-28.05L15.05-28.05 8.9-28.05ZM43.82 0.6L43.82 0.6Q39.92 0.6 36.85-1.2 33.77-3 32-6.61 30.22-10.23 30.22-15.65L30.22-15.65Q30.22-21.15 32-24.76 33.77-28.38 36.85-30.16 39.92-31.95 43.82-31.95L43.82-31.95Q47.72-31.95 50.8-30.15 53.87-28.35 55.65-24.73 57.42-21.1 57.42-15.65L57.42-15.65Q57.42-10.18 55.65-6.56 53.87-2.95 50.8-1.18 47.72 0.6 43.82 0.6ZM43.82-3L43.82-3Q48.25-3 50.81-6.23 53.37-9.45 53.37-15.7L53.37-15.7Q53.37-21.83 50.81-25.14 48.25-28.45 43.82-28.45L43.82-28.45Q39.45-28.45 36.86-25.13 34.27-21.8 34.27-15.65L34.27-15.65Q34.27-9.43 36.86-6.21 39.45-3 43.82-3ZM65-31.4L68.89-31.4 68.89-3.4 82.9-3.4 82.9 0 65 0 65-31.4ZM88.72 0L84.62 0 95.42-31.4 100.17-31.4 110.72 0 106.62 0 103.97-8.05 91.47-8.05 88.72 0ZM97.72-26.65L92.47-11.1 102.97-11.1 97.72-26.65ZM120.99 0L117.09 0 117.09-31.4 128.04-31.4Q133.41-31.4 136.18-28.84 138.94-26.28 138.94-22.1L138.94-22.1Q138.94-17.98 136.18-15.41 133.41-12.85 128.04-12.85L128.04-12.85 120.99-12.85 120.99 0ZM139.74 0L134.69 0 125.69-14.25 129.94-14.25 139.74 0ZM120.99-28.05L120.99-15.6 127.74-15.6Q131.26-15.6 133.1-17.34 134.94-19.07 134.94-21.85L134.94-21.85Q134.94-24.7 133.18-26.38 131.41-28.05 128.04-28.05L128.04-28.05 120.99-28.05ZM151.61 0L147.71 0 147.71-31.4 151.61-31.4 151.61 0ZM171.76 0.6L171.76 0.6Q168.61 0.6 165.98-0.54 163.36-1.68 161.76-3.9 160.16-6.13 160.11-9.4L160.11-9.4 163.91-9.4Q163.91-7.2 164.98-5.79 166.06-4.38 167.84-3.69 169.61-3 171.71-3L171.71-3Q173.98-3 175.66-3.73 177.34-4.45 178.25-5.64 179.16-6.83 179.16-8.25L179.16-8.25Q179.16-10.25 177.94-11.49 176.71-12.73 174.31-13.5L174.31-13.5 168.76-15.45Q164.86-16.85 162.86-18.65 160.86-20.45 160.86-23.7L160.86-23.7Q160.86-27.35 163.67-29.65 166.48-31.95 171.66-31.95L171.66-31.95Q176.46-31.95 179.16-29.74 181.86-27.53 182.26-23.8L182.26-23.8 178.41-23.8Q178.03-25.98 176.37-27.19 174.71-28.4 171.66-28.4L171.66-28.4Q168.56-28.4 166.84-27.03 165.11-25.65 165.11-23.55L165.11-23.55Q165.11-21.83 166.2-20.81 167.28-19.8 169.61-19L169.61-19 176.11-16.75Q179.49-15.63 181.45-13.6 183.41-11.58 183.41-8.35L183.41-8.35Q183.41-5.85 182.07-3.83 180.74-1.8 178.13-0.6 175.53 0.6 171.76 0.6Z" opacity="1" transform="matrix(1,0,0,1,0,0)" fill="#ffffff" class="undefined-text-0" data-fill-palette-color="primary" id="text-0"></path></svg></g></svg></g></svg></g></svg></g><g transform="matrix(1,0,0,1,155.23969837364547,0)"><svg viewBox="0 0 85.04060325270908 99.68965531306905" height="99.68965531306905" width="85.04060325270908"><g><svg xmlns="http://www.w3.org/2000/svg" xmlns:xlink="http://www.w3.org/1999/xlink" version="1.1" x="8" y="0" viewBox="35.90700149536133 29.649999618530273 28.187000274658203 40.69999694824219" enable-background="new 0 0 100 100" xml:space="preserve" height="99.68965531306905" width="69.04060325270908" class="icon-icon-0" data-fill-palette-color="accent" id="icon-0"><g fill="#ffffff" data-fill-palette-color="accent"><path d="M57.297 55.746v-4.078h-6.198V29.65H48.9v22.018h-6.196v4.078h-6.797V70.35h28.187V55.746H57.297zM44.903 53.868h10.195v1.838H44.903V53.868zM61.894 68.15H38.106V57.946h23.788C61.894 57.946 61.894 68.15 61.894 68.15z" fill="#ffffff" data-fill-palette-color="accent"></path><rect x="58.682" y="59.221" width="1.199" height="7.656" fill="#ffffff" data-fill-palette-color="accent"></rect><rect x="54.969" y="59.221" width="1.199" height="7.656" fill="#ffffff" data-fill-palette-color="accent"></rect><rect x="51.257" y="59.221" width="1.199" height="7.656" fill="#ffffff" data-fill-palette-color="accent"></rect><rect x="47.544" y="59.221" width="1.199" height="7.656" fill="#ffffff" data-fill-palette-color="accent"></rect><rect x="43.832" y="59.221" width="1.199" height="7.656" fill="#ffffff" data-fill-palette-color="accent"></rect><rect x="40.12" y="59.221" width="1.199" height="7.656" fill="#ffffff" data-fill-palette-color="accent"></rect></g></svg></g></svg></g><g><rect width="155.23969837364547" height="6.505149056336361" y="92.1845062567327" x="240.28030162635454" fill="#ffffff" data-fill-palette-color="accent"></rect><rect width="155.23969837364547" height="6.505149056336361" y="92.1845062567327" x="0" fill="#ffffff" data-fill-palette-color="accent"></rect><rect width="155.23969837364547" height="6.505149056336361" y="79.17420814405997" x="240.28030162635454" fill="#ffffff" data-fill-palette-color="accent"></rect><rect width="155.23969837364547" height="6.505149056336361" y="79.17420814405997" x="0" fill="#ffffff" data-fill-palette-color="accent"></rect></g></svg></g><defs></defs></svg><rect width="395.52" height="188.85317946701778" fill="none" stroke="none" visibility="hidden"></rect></g></svg></g></svg>